# Hierarchical Translation and Rotation (.htr) file
# Generated by EVaRT
[Header]
FileType htr
DataType HTRS
FileVersion 1
NumSegments 23
NumFrames 4
DataFrameRate 120
EulerRotationOrder ZYX
CalibrationUnits mm
RotationUnits Degrees
GlobalAxisofGravity Y
BoneLengthAxis Y
ScaleFactor 1
[SegmentNames&Hierarchy]
#CHILD            PARENT
DaveRoot          GLOBAL
Spine1            DaveRoot
Spine2            Spine1
Spine3            Spine2
Spine4            Spine3
Neck              Spine4
Head              Neck
LClavicle         Spine4
LUpperArm         LClavicle
LLowerArm         LUpperArm
LHand             LLowerArm
RClavicle         Spine4
RUpperArm         RClavicle
RLowerArm         RUpperArm
RHand             RLowerArm
RUpperLeg         DaveRoot
RLowerLeg         RUpperLeg
RFoot             RLowerLeg
RToes             RFoot
LUpperLeg         DaveRoot
LLowerLeg         LUpperLeg
LFoot             LLowerLeg
LToes             LFoot
[BasePosition]
#SegmentName      Tx   Ty   Tz   Rx   Ry   Rz   BoneLength
DaveRoot          -2055.569378	951.555595	-349.488296	-55.286396	87.050266	-65.121985	100.000000
Spine1            0.000000	100.000000	0.000000	-15.583766	0.109194	-2.004305	100.000000
Spine2            0.000000	100.000000	0.000000	5.873579	0.737526	-1.849210	100.000000
Spine3            0.000000	100.000000	0.000000	12.197367	0.936767	-1.756723	100.000000
Spine4            0.000000	100.000000	0.000000	13.310112	2.040835	-0.212222	100.000000
Neck              0.000000	100.000000	0.000000	12.619245	0.173111	5.676401	80.000000
Head              0.000000	80.000000	0.000000	-46.107413	-7.464542	12.340102	200.000000
LClavicle         0.000000	100.000000	0.000000	1.044460	-1.911847	-125.483710	200.000000
LUpperArm         0.000000	200.000000	0.000000	43.357802	45.679579	2.001361	300.000000
LLowerArm         0.000000	300.000000	0.000000	0.730208	2.175812	1.895763	200.000000
LHand             0.000000	200.000000	0.000000	7.864047	-1.768569	8.793625	120.000000
RClavicle         0.000000	100.000000	0.000000	-0.545713	-3.840301	119.120382	200.000000
RUpperArm         0.000000	200.000000	0.000000	38.253382	-38.646808	20.273438	300.000000
RLowerArm         0.000000	300.000000	0.000000	3.077531	-3.682026	-7.348670	200.000000
RHand             0.000000	200.000000	0.000000	24.943087	4.220171	-5.193807	120.000000
RUpperLeg         -115.911102	-10.000000	31.058285	22.464267	14.037388	-176.329742	530.000000
RLowerLeg         0.000000	530.000000	0.000000	-23.704548	0.479387	-2.520024	460.000000
RFoot             0.000000	460.000000	0.000000	90.327319	5.730808	-0.531790	130.000000
RToes             0.000000	130.000000	0.000000	18.726053	0.005479	-0.002881	100.000000
LUpperLeg         115.911102	-10.000000	31.058285	16.272232	9.077962	178.396881	530.000000
LLowerLeg         0.000000	530.000000	0.000000	-9.044305	-3.275937	3.046484	460.000000
LFoot             0.000000	460.000000	0.000000	80.193205	-12.160808	23.252942	130.000000
LToes             0.000000	130.000000	0.000000	33.283153	-0.000000	-0.000086	100.000000
#Beginning of Data.
[DaveRoot]
#Fr	Tx	Ty	Tz	Rx	Ry	Rz	SF
1111	791.867496	-0.609289	496.406864	9.992264	-38.081857	6.738488	1.000000	
1112	786.833814	3.746520	496.399109	9.629340	-38.490316	6.960402	1.000000	
1113	781.211628	5.983684	495.703391	9.986067	-38.895009	6.917700	1.000000	
1114	776.424157	10.007537	495.918186	9.571312	-39.296761	7.144872	1.000000	
[Spine1]
#Fr	Tx	Ty	Tz	Rx	Ry	Rz	SF
1111	0.000000	0.000000	0.000000	0.508765	-1.577011	3.956078	1.000000	
1112	0.000000	0.000000	0.000000	1.320743	-1.629124	3.948454	1.000000	
1113	0.000000	0.000000	0.000000	0.414591	-1.512798	3.872273	1.000000	
1114	0.000000	0.000000	0.000000	1.276793	-1.588179	3.862932	1.000000	
[Spine2]
#Fr	Tx	Ty	Tz	Rx	Ry	Rz	SF
1111	0.000000	0.000000	0.000000	0.508765	-1.577011	3.956078	1.000000	
1112	0.000000	0.000000	0.000000	1.320743	-1.629124	3.948454	1.000000	
1113	0.000000	0.000000	0.000000	0.414591	-1.512798	3.872273	1.000000	
1114	0.000000	0.000000	0.000000	1.276793	-1.588179	3.862932	1.000000	
[Spine3]
#Fr	Tx	Ty	Tz	Rx	Ry	Rz	SF
1111	0.000000	0.000000	0.000000	0.508765	-1.577011	3.956078	1.000000	
1112	0.000000	0.000000	0.000000	1.320743	-1.629124	3.948454	1.000000	
1113	0.000000	0.000000	0.000000	0.414591	-1.512798	3.872273	1.000000	
1114	0.000000	0.000000	0.000000	1.276793	-1.588179	3.862932	1.000000	
[Spine4]
#Fr	Tx	Ty	Tz	Rx	Ry	Rz	SF
1111	0.000000	0.000000	0.000000	0.508765	-1.577011	3.956078	1.000000	
1112	0.000000	0.000000	0.000000	1.320743	-1.629124	3.948454	1.000000	
1113	0.000000	0.000000	0.000000	0.414591	-1.512798	3.872273	1.000000	
1114	0.000000	0.000000	0.000000	1.276793	-1.588179	3.862932	1.000000	
[Neck]
#Fr	Tx	Ty	Tz	Rx	Ry	Rz	SF
1111	0.000000	0.000000	0.000000	4.014436	-1.890921	-4.207203	1.000000	
1112	0.000000	0.000000	0.000000	0.116850	-0.851811	-4.524017	1.000000	
1113	0.000000	0.000000	0.000000	3.912275	-0.951676	-4.598266	1.000000	
1114	0.000000	0.000000	0.000000	-0.223211	0.106002	-4.982111	1.000000	
[Head]
#Fr	Tx	Ty	Tz	Rx	Ry	Rz	SF
1111	0.000000	0.000000	0.000000	4.014436	-1.890921	-4.207203	1.000000	
1112	0.000000	0.000000	0.000000	0.116850	-0.851811	-4.524017	1.000000	
1113	0.000000	0.000000	0.000000	3.912275	-0.951676	-4.598266	1.000000	
1114	0.000000	0.000000	0.000000	-0.223211	0.106002	-4.982111	1.000000	
[LClavicle]
#Fr	Tx	Ty	Tz	Rx	Ry	Rz	SF
1111	0.000000	0.000000	0.000000	12.153499	-1.178703	26.470847	1.000000	
1112	0.000000	0.000000	0.000000	2.675217	-0.113510	23.442414	1.000000	
1113	0.000000	0.000000	0.000000	12.651004	-1.068178	25.762250	1.000000	
1114	0.000000	0.000000	0.000000	2.536595	-0.073640	22.676361	1.000000	
[LUpperArm]
#Fr	Tx	Ty	Tz	Rx	Ry	Rz	SF
1111	0.000000	0.000000	0.000000	16.248647	-47.787930	-11.115818	1.000000	
1112	0.000000	0.000000	0.000000	25.563452	-41.916249	-2.236903	1.000000	
1113	0.000000	0.000000	0.000000	14.695267	-44.872428	-10.576599	1.000000	
1114	0.000000	0.000000	0.000000	25.093413	-38.450909	-1.079176	1.000000	
[LLowerArm]
#Fr	Tx	Ty	Tz	Rx	Ry	Rz	SF
1111	0.000000	0.000000	0.000000	42.481595	-0.000000	-0.000000	1.000000	
1112	0.000000	0.000000	0.000000	26.899167	-0.000000	-0.000000	1.000000	
1113	0.000000	0.000000	0.000000	39.553547	-0.000000	-0.000000	1.000000	
1114	0.000000	0.000000	0.000000	21.972072	-0.000000	-0.000000	1.000000	
[LHand]
#Fr	Tx	Ty	Tz	Rx	Ry	Rz	SF
1111	0.000000	0.000000	0.000000	-1.775793	0.000000	0.000000	1.000000	
1112	0.000000	0.000000	0.000000	7.355775	0.000000	0.000000	1.000000	
1113	0.000000	0.000000	0.000000	-2.922282	0.000000	0.000000	1.000000	
1114	0.000000	0.000000	0.000000	7.647349	0.000000	0.000000	1.000000	
[RClavicle]
#Fr	Tx	Ty	Tz	Rx	Ry	Rz	SF
1111	0.000000	0.000000	0.000000	5.862580	-0.019387	-11.107523	1.000000	
1112	0.000000	0.000000	0.000000	1.182596	-0.029371	-9.873841	1.000000	
1113	0.000000	0.000000	0.000000	5.756029	-0.007091	-11.225982	1.000000	
1114	0.000000	0.000000	0.000000	0.927402	-0.021423	-9.973153	1.000000	
[RUpperArm]
#Fr	Tx	Ty	Tz	Rx	Ry	Rz	SF
1111	0.000000	0.000000	0.000000	-17.981998	26.991749	3.774271	1.000000	
1112	0.000000	0.000000	0.000000	-7.072681	7.969500	2.821758	1.000000	
1113	0.000000	0.000000	0.000000	-17.286526	27.383880	5.164294	1.000000	
1114	0.000000	0.000000	0.000000	-6.285966	7.036711	3.923295	1.000000	
[RLowerArm]
#Fr	Tx	Ty	Tz	Rx	Ry	Rz	SF
1111	0.000000	0.000000	0.000000	23.947208	-0.000000	-0.000000	1.000000	
1112	0.000000	0.000000	0.000000	0.234860	-0.000000	-0.000000	1.000000	
1113	0.000000	0.000000	0.000000	23.719541	-0.000000	-0.000000	1.000000	
1114	0.000000	0.000000	0.000000	-0.144234	-0.000000	-0.000000	1.000000	
[RHand]
#Fr	Tx	Ty	Tz	Rx	Ry	Rz	SF
1111	0.000000	0.000000	0.000000	-37.750069	-5.233401	8.278374	1.000000	
1112	0.000000	0.000000	0.000000	-10.038508	-2.462887	3.281415	1.000000	
1113	0.000000	0.000000	0.000000	-38.514031	-4.701566	9.034371	1.000000	
1114	0.000000	0.000000	0.000000	-10.610573	-1.127751	3.757380	1.000000	
[RUpperLeg]
#Fr	Tx	Ty	Tz	Rx	Ry	Rz	SF
1111	0.000000	0.000000	0.000000	28.172749	7.998511	17.630044	1.000000	
1112	0.000000	0.000000	0.000000	27.506845	7.601905	16.724075	1.000000	
1113	0.000000	0.000000	0.000000	27.638523	6.909833	16.128516	1.000000	
1114	0.000000	0.000000	0.000000	26.922052	6.492995	15.167608	1.000000	
[RLowerLeg]
#Fr	Tx	Ty	Tz	Rx	Ry	Rz	SF
1111	0.000000	0.000000	0.000000	11.291109	0.000000	0.000000	1.000000	
1112	0.000000	0.000000	0.000000	10.842579	0.000000	0.000000	1.000000	
1113	0.000000	0.000000	0.000000	9.833836	0.000000	0.000000	1.000000	
1114	0.000000	0.000000	0.000000	9.287753	0.000000	0.000000	1.000000	
[RFoot]
#Fr	Tx	Ty	Tz	Rx	Ry	Rz	SF
1111	0.000000	0.000000	0.000000	-25.854515	12.198545	10.099949	1.000000	
1112	0.000000	0.000000	0.000000	-25.401472	11.032152	9.428580	1.000000	
1113	0.000000	0.000000	0.000000	-24.498088	10.244328	8.510758	1.000000	
1114	0.000000	0.000000	0.000000	-23.935345	9.410367	7.756559	1.000000	
[RToes]
#Fr	Tx	Ty	Tz	Rx	Ry	Rz	SF
1111	0.000000	0.000000	0.000000	-5.599739	0.000000	0.000000	1.000000	
1112	0.000000	0.000000	0.000000	-5.394182	0.000000	0.000000	1.000000	
1113	0.000000	0.000000	0.000000	-5.365263	0.000000	0.000000	1.000000	
1114	0.000000	0.000000	0.000000	-5.149850	0.000000	0.000000	1.000000	
[LUpperLeg]
#Fr	Tx	Ty	Tz	Rx	Ry	Rz	SF
1111	0.000000	0.000000	0.000000	13.130712	-16.868992	0.028217	1.000000	
1112	0.000000	0.000000	0.000000	12.278121	-16.840119	0.069950	1.000000	
1113	0.000000	0.000000	0.000000	12.392178	-16.771762	0.234460	1.000000	
1114	0.000000	0.000000	0.000000	11.453542	-16.635888	0.294930	1.000000	
[LLowerLeg]
#Fr	Tx	Ty	Tz	Rx	Ry	Rz	SF
1111	0.000000	0.000000	0.000000	-20.357284	0.000000	-0.000000	1.000000	
1112	0.000000	0.000000	0.000000	-18.500798	0.000000	-0.000000	1.000000	
1113	0.000000	0.000000	0.000000	-17.464735	0.000000	-0.000000	1.000000	
1114	0.000000	0.000000	0.000000	-15.597970	0.000000	-0.000000	1.000000	
[LFoot]
#Fr	Tx	Ty	Tz	Rx	Ry	Rz	SF
1111	0.000000	0.000000	0.000000	19.474505	-0.518930	0.949492	1.000000	
1112	0.000000	0.000000	0.000000	18.320999	-0.788872	0.713530	1.000000	
1113	0.000000	0.000000	0.000000	17.508138	-0.342052	1.068120	1.000000	
1114	0.000000	0.000000	0.000000	16.324361	-0.678764	0.838198	1.000000	
[LToes]
#Fr	Tx	Ty	Tz	Rx	Ry	Rz	SF
1111	0.000000	0.000000	0.000000	-4.037726	-0.000000	0.000000	1.000000	
1112	0.000000	0.000000	0.000000	-4.285532	-0.000000	0.000000	1.000000	
1113	0.000000	0.000000	0.000000	-3.834753	-0.000000	0.000000	1.000000	
1114	0.000000	0.000000	0.000000	-4.216303	-0.000000	0.000000	1.000000	
